# xmcd CD database file generated by Grip 3.3.1
# 
# Track frame offsets:
#       183
#       15695
#       35123
#       51675
#       81385
#       94678
#       112718
#       124853
#       145130
#       160663
# 
# Disc length: 2302 seconds
# 
# Revision: 4
# Processed by: cddbd v1.5.2PL0 Copyright (c) Steve Scherf et al.
# Submitted via: Grip 3.3.1
# 
DISCID=8308fc0a
DTITLE=Various Artist - If You Can't Please Yourself, You Can't Please Your Sou
DTITLE=l
DYEAR=1997
DGENRE=Blues
TTITLE0=Scraping Foetus Off the Wheel - The Only Good Christian is a Dead
TTITLE0=Christian
TTITLE1=Cabaret Voltaire - Product Patrol
TTITLE2=Test De[t. - Total Nervous Phenomonom
TTITLE3=Marc Almond - Love Amongst the Ruined
TTITLE4=Psychic T.V. - Twisted
TTITLE5=The The - Flesh and Bones
TTITLE6=Coil - The Wheel
TTITLE7=Yello - The Roxy Cut
TTITLE8=Virginia Astley - Waiting to Fall
TTITLE9=Einsturzende Neubauten - Wardrobe
EXTD=
EXTT0=
EXTT1=
EXTT2=
EXTT3=
EXTT4=
EXTT5=
EXTT6=
EXTT7=
EXTT8=
EXTT9=
PLAYORDER=
